<svg width="22" height="19" viewBox="0 0 22 19" fill="none" xmlns="http://www.w3.org/2000/svg">
<path d="M14.4565 7.67491L14.3144 7.53285C13.6661 6.90783 12.8549 6.43357 11.9235 6.18399C9.0168 5.40515 6.22541 7.05261 5.43185 10.0142C5.38901 10.1741 5.36574 10.3536 5.3285 10.805C5.17423 12.675 4.73449 14.0696 3.5286 15.4841C5.78847 16.3726 8.46572 16.9984 10.5016 16.9984C12.9702 16.9984 15.1644 15.3393 15.8126 12.9201C16.3306 10.9868 15.7513 9.018 14.4565 7.67491ZM12.2886 4.21289L17.2278 0.371297C17.6259 0.0616768 18.1922 0.0969369 18.5488 0.453547L21.543 3.44774C21.8997 3.80435 21.9349 4.3707 21.6253 4.76879L17.7847 9.7067C18.0778 10.895 18.0836 12.1719 17.7444 13.4377C16.8463 16.7896 13.8142 18.9984 10.5016 18.9984C7 18.9984 2.5 17.4966 0 15.9966C3.97978 12.9966 3.04722 11.1864 3.5 9.4966C4.55843 5.54646 8.34224 3.23923 12.2886 4.21289ZM15.7015 6.09149C15.7673 6.15494 15.8319 6.21952 15.8952 6.2852L17.0297 7.41972L19.5046 4.23774L17.7589 2.49198L14.5769 4.96685L15.7015 6.09149Z" fill="currentColor"/>
</svg>
