<svg width="20" height="20" viewBox="0 0 20 20" fill="none" xmlns="http://www.w3.org/2000/svg">
<path d="M10.0049 0C15.5277 0 20.0049 4.47715 20.0049 10C20.0049 15.5228 15.5277 20 10.0049 20C7.57847 20 5.3539 19.1358 3.62216 17.6985L3.37815 17.4892L4.27949 15.5875C5.73229 17.0759 7.76067 18 10.0049 18C14.4232 18 18.0049 14.4183 18.0049 10C18.0049 5.58172 14.4232 2 10.0049 2C5.66997 2 2.14034 5.44784 2.00869 9.7508L2.00488 10H4.50488L1.79854 15.7161C0.667963 14.096 0.00488281 12.1254 0.00488281 10C0.00488281 4.47715 4.48204 0 10.0049 0ZM11.0049 4V6H13.5049V8H8.0049C7.72874 8 7.50488 8.2239 7.50488 8.5C7.50488 8.7455 7.68176 8.9496 7.91501 8.9919L8.0049 9H12.0049C13.3856 9 14.5049 10.1193 14.5049 11.5C14.5049 12.8807 13.3856 14 12.0049 14H11.0049V16H9.0049V14H6.50488V12H12.0049C12.281 12 12.5049 11.7761 12.5049 11.5C12.5049 11.2545 12.328 11.0504 12.0948 11.0081L12.0049 11H8.0049C6.62417 11 5.50488 9.8807 5.50488 8.5C5.50488 7.11929 6.62417 6 8.0049 6H9.0049V4H11.0049Z" fill="currentColor"/>
</svg>
