<svg width="18" height="22" viewBox="0 0 18 22" fill="none" xmlns="http://www.w3.org/2000/svg">
<path d="M4.05025 8.04673L9 3.09698L13.9497 8.04673C16.6834 10.7804 16.6834 15.2126 13.9497 17.9462C11.2161 20.6799 6.78392 20.6799 4.05025 17.9462C1.31658 15.2126 1.31658 10.7804 4.05025 8.04673ZM15.364 6.63252L9 0.268555L2.63604 6.63252C-0.87868 10.1472 -0.87868 15.8457 2.63604 19.3604C6.15076 22.8752 11.8492 22.8752 15.364 19.3604C18.8787 15.8457 18.8787 10.1472 15.364 6.63252ZM13.2427 10.1714L11.8285 8.75718L4.7574 15.8282L6.17161 17.2425L13.2427 10.1714ZM5.11095 11.232C5.69674 11.8178 6.64648 11.8178 7.2323 11.232C7.8181 10.6463 7.8181 9.69652 7.2323 9.11073C6.64648 8.52494 5.69674 8.52494 5.11095 9.11073C4.52516 9.69652 4.52516 10.6463 5.11095 11.232ZM12.8891 16.8889C12.3033 17.4747 11.3536 17.4747 10.7678 16.8889C10.182 16.3031 10.182 15.3534 10.7678 14.7676C11.3536 14.1818 12.3033 14.1818 12.8891 14.7676C13.4749 15.3534 13.4749 16.3031 12.8891 16.8889Z" fill="currentColor"/>
</svg>
