<svg width="18" height="18" viewBox="0 0 18 18" fill="none" xmlns="http://www.w3.org/2000/svg">
<path d="M11 16H16V2H2V16H9V11H7V9H9V7.3458C9 6.00855 9.1392 5.52362 9.4007 5.03473C9.6622 4.54584 10.0458 4.16216 10.5347 3.9007C10.9174 3.69604 11.3922 3.57252 12.2217 3.51954C12.551 3.49851 12.9771 3.52533 13.5 3.6V5.5H13C12.0827 5.5 11.7042 5.54332 11.4779 5.66433C11.3376 5.73939 11.2394 5.83758 11.1643 5.97793C11.0433 6.20418 11 6.42853 11 7.3458V9H13.5L13 11H11V16ZM1 0H17C17.5523 0 18 0.44772 18 1V17C18 17.5523 17.5523 18 17 18H1C0.44772 18 0 17.5523 0 17V1C0 0.44772 0.44772 0 1 0Z" fill="#A3A3A3"/>
</svg>
