<svg width="19" height="21" viewBox="0 0 19 21" fill="none" xmlns="http://www.w3.org/2000/svg">
<path d="M3.88401 16.6531C3.58404 16.4523 3.32587 16.1972 3.0239 15.8366C2.91473 15.7062 2.47283 15.1521 2.55811 15.258C2.09533 14.6831 1.80296 14.4168 1.50156 14.3087C0.981702 14.1223 0.711402 13.5497 0.897842 13.0298C1.08428 12.51 1.65685 12.2397 2.17672 12.4261C2.92936 12.696 3.43847 13.1609 4.12425 14.0141C4.03025 13.8972 4.46364 14.4408 4.55731 14.5526C4.74784 14.7802 4.88732 14.918 4.99629 14.9909C5.20118 15.128 5.58451 15.1871 6.14709 15.1308C6.17065 14.7487 6.24136 14.378 6.34919 14.0355C3.38097 13.3101 1.70116 11.3949 1.70116 7.63947C1.70116 6.4006 2.0704 5.28368 2.75917 4.34756C2.5415 3.45368 2.57433 2.37259 3.06092 1.15611C3.1725 0.877149 3.40361 0.663139 3.69031 0.573279C3.77242 0.549489 3.81791 0.538899 3.89878 0.526479C4.70167 0.403189 5.83573 0.696809 7.31449 1.62311C8.181 1.41855 9.0885 1.31476 10.0012 1.31476C10.9129 1.31476 11.8196 1.41835 12.6854 1.62253C14.1619 0.689759 15.2986 0.396249 16.1072 0.526269C16.1919 0.539879 16.2645 0.557579 16.3249 0.577409C16.6059 0.669669 16.8316 0.881549 16.9414 1.15611C17.4279 2.37232 17.4608 3.45319 17.2433 4.34695C17.9342 5.28313 18.3012 6.39184 18.3012 7.63947C18.3012 11.3966 16.627 13.3046 13.6588 14.0318C13.7837 14.4467 13.8496 14.9103 13.8496 15.4118C13.8496 16.0763 13.8471 16.7108 13.8424 17.4223C13.8412 17.6124 13.8397 17.8156 13.8375 18.1279C14.2129 18.2107 14.5229 18.5074 14.6031 18.9086C14.7114 19.4502 14.3602 19.977 13.8186 20.0853C12.6794 20.3132 11.8353 19.5535 11.8353 18.5608C11.8353 18.4705 11.836 18.3414 11.8375 18.1142C11.8398 17.8012 11.8412 17.5987 11.8425 17.4092C11.8471 16.7017 11.8496 16.0714 11.8496 15.4118C11.8496 14.7145 11.6664 14.26 11.4237 14.0508C10.7627 13.481 11.0977 12.3971 11.965 12.2996C14.9314 11.9663 16.3012 10.8174 16.3012 7.63947C16.3012 6.68484 15.9893 5.89547 15.3881 5.23534C15.1301 4.95209 15.0567 4.54634 15.199 4.19062C15.3647 3.77639 15.4354 3.2336 15.2941 2.57678L15.2847 2.57944C14.7928 2.71861 14.1744 3.01956 13.4261 3.52826C13.182 3.69413 12.8772 3.74377 12.5932 3.66388C11.7729 3.43319 10.8913 3.31476 10.0012 3.31476C9.111 3.31476 8.2294 3.43319 7.40916 3.66388C7.12662 3.74335 6.82344 3.69468 6.57997 3.53077C5.8274 3.02414 5.2056 2.72355 4.71079 2.58352C4.56735 3.23672 4.63814 3.77758 4.80336 4.19062C4.94565 4.54634 4.87219 4.95209 4.61423 5.23534C4.01715 5.89096 3.70116 6.69352 3.70116 7.63947C3.70116 10.8114 5.07225 11.9681 8.023 12.2996C8.8883 12.3969 9.2246 13.4767 8.5675 14.048C8.3751 14.2153 8.1384 14.7799 8.1384 15.4118V18.5608C8.1384 19.5472 7.30356 20.2866 6.17878 20.0898C5.63476 19.9946 5.27093 19.4764 5.36613 18.9324C5.43827 18.5201 5.75331 18.2114 6.13841 18.1274V17.1379C5.22829 17.1991 4.47656 17.0496 3.88401 16.6531Z" fill="#A3A3A3"/>
</svg>
