<svg width="20" height="20" viewBox="0 0 20 20" fill="none" xmlns="http://www.w3.org/2000/svg">
<path d="M3.46257 2.43262C5.21556 0.91688 7.5007 0 10 0C15.5228 0 20 4.47715 20 10C20 12.1361 19.3302 14.1158 18.1892 15.7406L15 10H18C18 5.58172 14.4183 2 10 2C7.84982 2 5.89777 2.84827 4.46023 4.22842L3.46257 2.43262ZM16.5374 17.5674C14.7844 19.0831 12.4993 20 10 20C4.47715 20 0 15.5228 0 10C0 7.86386 0.66979 5.88416 1.8108 4.25944L5 10H2C2 14.4183 5.58172 18 10 18C12.1502 18 14.1022 17.1517 15.5398 15.7716L16.5374 17.5674Z" fill="currentColor"/>
</svg>
