<svg width="16" height="23" viewBox="0 0 16 23" fill="none" xmlns="http://www.w3.org/2000/svg">
<path d="M11.5018 19.0047C10.8432 20.5841 9.5794 21.848 8 22.5066C6.4206 21.848 5.15679 20.5841 4.49816 19.0047H6.7575C7.0838 19.4933 7.5051 19.9171 8 20.248C8.4949 19.9171 8.9162 19.4933 9.2425 19.0047H11.5018ZM14 13.8095L16 16.0777V18.0047H0V16.0777L2 13.8095V8.00475C2 4.5215 4.50442 1.55819 8 0.459961C11.4956 1.55819 14 4.5215 14 8.00475V13.8095ZM13.2692 16.0047L12 14.5653V8.00475C12 5.68691 10.4292 3.57428 8 2.58381C5.57078 3.57428 4 5.68691 4 8.00475V14.5653L2.73076 16.0047H13.2692ZM8 10.0047C6.8954 10.0047 6 9.1093 6 8.00475C6 6.90018 6.8954 6.00475 8 6.00475C9.1046 6.00475 10 6.90018 10 8.00475C10 9.1093 9.1046 10.0047 8 10.0047Z" fill="currentColor"/>
</svg>
