<svg width="20" height="20" viewBox="0 0 20 20" fill="none" xmlns="http://www.w3.org/2000/svg">
<path d="M10 9C12.7614 9 15 11.2386 15 14V20H13V14C13 12.4023 11.7511 11.0963 10.1763 11.0051L10 11C8.4023 11 7.09634 12.2489 7.00509 13.8237L7 14V20H5V14C5 11.2386 7.23858 9 10 9ZM3.5 12C3.77885 12 4.05009 12.0326 4.3101 12.0942C4.14202 12.594 4.03873 13.122 4.00896 13.6693L4 14L4.0007 14.0856C3.88757 14.0456 3.76821 14.0187 3.64446 14.0069L3.5 14C2.7203 14 2.07955 14.5949 2.00687 15.3555L2 15.5V20H0V15.5C0 13.567 1.567 12 3.5 12ZM16.5 12C18.433 12 20 13.567 20 15.5V20H18V15.5C18 14.7203 17.4051 14.0796 16.6445 14.0069L16.5 14C16.3248 14 16.1566 14.03 16.0003 14.0852L16 14C16 13.3343 15.8916 12.694 15.6915 12.0956C15.9499 12.0326 16.2211 12 16.5 12ZM3.5 6C4.88071 6 6 7.11929 6 8.5C6 9.8807 4.88071 11 3.5 11C2.11929 11 1 9.8807 1 8.5C1 7.11929 2.11929 6 3.5 6ZM16.5 6C17.8807 6 19 7.11929 19 8.5C19 9.8807 17.8807 11 16.5 11C15.1193 11 14 9.8807 14 8.5C14 7.11929 15.1193 6 16.5 6ZM3.5 8C3.22386 8 3 8.2239 3 8.5C3 8.7761 3.22386 9 3.5 9C3.77614 9 4 8.7761 4 8.5C4 8.2239 3.77614 8 3.5 8ZM16.5 8C16.2239 8 16 8.2239 16 8.5C16 8.7761 16.2239 9 16.5 9C16.7761 9 17 8.7761 17 8.5C17 8.2239 16.7761 8 16.5 8ZM10 0C12.2091 0 14 1.79086 14 4C14 6.20914 12.2091 8 10 8C7.79086 8 6 6.20914 6 4C6 1.79086 7.79086 0 10 0ZM10 2C8.8954 2 8 2.89543 8 4C8 5.10457 8.8954 6 10 6C11.1046 6 12 5.10457 12 4C12 2.89543 11.1046 2 10 2Z" fill="currentColor"/>
</svg>
