<svg width="20" height="16" viewBox="0 0 20 16" fill="none" xmlns="http://www.w3.org/2000/svg">
<path d="M17.6069 2.99482C17.5307 2.69695 17.3152 2.47221 17.0684 2.40288C16.6299 2.28062 14.501 2 10.001 2C5.50098 2 3.37252 2.28073 2.93225 2.40323C2.68776 2.47123 2.4723 2.69593 2.3951 2.99482C2.2863 3.41923 2.00098 5.19595 2.00098 8C2.00098 10.804 2.2863 12.5808 2.3954 13.0064C2.47126 13.3031 2.68676 13.5278 2.93251 13.5968C3.37252 13.7193 5.50098 14 10.001 14C14.501 14 16.6299 13.7194 17.0697 13.5968C17.3142 13.5288 17.5297 13.3041 17.6069 13.0052C17.7157 12.5808 18.001 10.8 18.001 8C18.001 5.2 17.7157 3.41923 17.6069 2.99482ZM19.5442 2.49818C20.001 4.28 20.001 8 20.001 8C20.001 8 20.001 11.72 19.5442 13.5018C19.2897 14.4873 18.547 15.2618 17.6056 15.5236C15.8971 16 10.001 16 10.001 16C10.001 16 4.10837 16 2.39637 15.5236C1.45146 15.2582 0.708787 14.4836 0.457737 13.5018C0.000976741 11.72 0.000976562 8 0.000976562 8C0.000976562 8 0.000976741 4.28 0.457737 2.49818C0.712267 1.51273 1.45495 0.73818 2.39637 0.47636C4.10837 -1.49012e-07 10.001 0 10.001 0C10.001 0 15.8971 -1.49012e-07 17.6056 0.47636C18.5505 0.74182 19.2932 1.51636 19.5442 2.49818ZM8.001 11.5V4.5L14.001 8L8.001 11.5Z" fill="#A3A3A3"/>
</svg>
